<svg width="100" height="200" viewBox="0 0 100 200" xmlns="http://www.w3.org/2000/svg">
  <defs>
    <linearGradient id="goma_neumatico" x1="0%" y1="0%" x2="100%" y2="0%">
      <stop offset="0%" style="stop-color:#2a2a2a;stop-opacity:1" />
      <stop offset="25%" style="stop-color:#3d3d3d;stop-opacity:1" />
      <stop offset="50%" style="stop-color:#4a4a4a;stop-opacity:1" />
      <stop offset="75%" style="stop-color:#3d3d3d;stop-opacity:1" />
      <stop offset="100%" style="stop-color:#2a2a2a;stop-opacity:1" />
    </linearGradient>

    <linearGradient id="fondo_surco" x1="0%" y1="0%" x2="100%" y2="0%">
      <stop offset="0%" style="stop-color:#1a1a1a;stop-opacity:1" />
      <stop offset="50%" style="stop-color:#111111;stop-opacity:1" />
      <stop offset="100%" style="stop-color:#1a1a1a;stop-opacity:1" />
    </linearGradient>
  </defs>

  <rect x="5" y="5" width="90" height="190" rx="10" fill="url(#goma_neumatico)" stroke="#1a1a1a" stroke-width="0.5"/>

  <rect x="25" y="5" width="6" height="190" fill="url(#fondo_surco)" />
  <rect x="47" y="5" width="6" height="190" fill="url(#fondo_surco)" />
  <rect x="69" y="5" width="6" height="190" fill="url(#fondo_surco)" />

  <g fill="none" stroke="#2a2a2a" stroke-width="0.7" stroke-dasharray="2,3">
    <path d="M28 5 v190" />
    <path d="M50 5 v190" />
    <path d="M72 5 v190" />
  </g>

  <g fill="#4a4a4a" stroke="#1a1a1a" stroke-width="0.5" stroke-linecap="round" stroke-linejoin="round">
    <path d="M5 20 h20 q1,0 1,1 v8 q0,1 -1,1 h-20 q-1,0 -1,-1 v-8 q0,-1 1,-1 Z" />
    <path d="M31 20 h16 q1,0 1,1 v8 q0,1 -1,1 h-16 q-1,0 -1,-1 v-8 q0,-1 1,-1 Z" />
    <path d="M53 20 h16 q1,0 1,1 v8 q0,1 -1,1 h-16 q-1,0 -1,-1 v-8 q0,-1 1,-1 Z" />
    <path d="M75 20 h20 q1,0 1,1 v8 q0,1 -1,1 h-20 q-1,0 -1,-1 v-8 q0,-1 1,-1 Z" />
    
    <path d="M5 45 h20 q1,0 1,1 v8 q0,1 -1,1 h-20 q-1,0 -1,-1 v-8 q0,-1 1,-1 Z" />
    <path d="M31 45 h16 q1,0 1,1 v8 q0,1 -1,1 h-16 q-1,0 -1,-1 v-8 q0,-1 1,-1 Z" />
    <path d="M53 45 h16 q1,0 1,1 v8 q0,1 -1,1 h-16 q-1,0 -1,-1 v-8 q0,-1 1,-1 Z" />
    <path d="M75 45 h20 q1,0 1,1 v8 q0,1 -1,1 h-20 q-1,0 -1,-1 v-8 q0,-1 1,-1 Z" />

    <path d="M5 70 h20 q1,0 1,1 v8 q0,1 -1,1 h-20 q-1,0 -1,-1 v-8 q0,-1 1,-1 Z" />
    <path d="M31 70 h16 q1,0 1,1 v8 q0,1 -1,1 h-16 q-1,0 -1,-1 v-8 q0,-1 1,-1 Z" />
    <path d="M53 70 h16 q1,0 1,1 v8 q0,1 -1,1 h-16 q-1,0 -1,-1 v-8 q0,-1 1,-1 Z" />
    <path d="M75 70 h20 q1,0 1,1 v8 q0,1 -1,1 h-20 q-1,0 -1,-1 v-8 q0,-1 1,-1 Z" />

    <path d="M5 95 h20 q1,0 1,1 v8 q0,1 -1,1 h-20 q-1,0 -1,-1 v-8 q0,-1 1,-1 Z" />
    <path d="M31 95 h16 q1,0 1,1 v8 q0,1 -1,1 h-16 q-1,0 -1,-1 v-8 q0,-1 1,-1 Z" />
    <path d="M53 95 h16 q1,0 1,1 v8 q0,1 -1,1 h-16 q-1,0 -1,-1 v-8 q0,-1 1,-1 Z" />
    <path d="M75 95 h20 q1,0 1,1 v8 q0,1 -1,1 h-20 q-1,0 -1,-1 v-8 q0,-1 1,-1 Z" />

    <path d="M5 120 h20 q1,0 1,1 v8 q0,1 -1,1 h-20 q-1,0 -1,-1 v-8 q0,-1 1,-1 Z" />
    <path d="M31 120 h16 q1,0 1,1 v8 q0,1 -1,1 h-16 q-1,0 -1,-1 v-8 q0,-1 1,-1 Z" />
    <path d="M53 120 h16 q1,0 1,1 v8 q0,1 -1,1 h-16 q-1,0 -1,-1 v-8 q0,-1 1,-1 Z" />
    <path d="M75 120 h20 q1,0 1,1 v8 q0,1 -1,1 h-20 q-1,0 -1,-1 v-8 q0,-1 1,-1 Z" />

    <path d="M5 145 h20 q1,0 1,1 v8 q0,1 -1,1 h-20 q-1,0 -1,-1 v-8 q0,-1 1,-1 Z" />
    <path d="M31 145 h16 q1,0 1,1 v8 q0,1 -1,1 h-16 q-1,0 -1,-1 v-8 q0,-1 1,-1 Z" />
    <path d="M53 145 h16 q1,0 1,1 v8 q0,1 -1,1 h-16 q-1,0 -1,-1 v-8 q0,-1 1,-1 Z" />
    <path d="M75 145 h20 q1,0 1,1 v8 q0,1 -1,1 h-20 q-1,0 -1,-1 v-8 q0,-1 1,-1 Z" />

    <path d="M5 170 h20 q1,0 1,1 v8 q0,1 -1,1 h-20 q-1,0 -1,-1 v-8 q0,-1 1,-1 Z" />
    <path d="M31 170 h16 q1,0 1,1 v8 q0,1 -1,1 h-16 q-1,0 -1,-1 v-8 q0,-1 1,-1 Z" />
    <path d="M53 170 h16 q1,0 1,1 v8 q0,1 -1,1 h-16 q-1,0 -1,-1 v-8 q0,-1 1,-1 Z" />
    <path d="M75 170 h20 q1,0 1,1 v8 q0,1 -1,1 h-20 q-1,0 -1,-1 v-8 q0,-1 1,-1 Z" />
  </g>
  
  <rect x="5" y="5" width="5" height="190" fill="black" fill-opacity="0.15" />
  <rect x="90" y="5" width="5" height="190" fill="black" fill-opacity="0.15" />
</svg>
